<svg width="30" height="32" viewBox="0 0 30 32" fill="none" xmlns="http://www.w3.org/2000/svg">
<path d="M17.1165 1.90909C15.9617 3.38899 15.2727 5.25014 15.2727 7.27273C15.2727 12.0927 19.1801 16 24 16C25.2982 16 26.5292 15.7143 27.6364 15.206V24L13.8182 32L0 24V8L13.8182 0L17.1165 1.90909ZM2.90909 22.3225L13.8182 28.6393V16L2.90909 9.68324V22.3225ZM23.3153 1.91904C23.5722 1.29964 24.4281 1.29962 24.6847 1.91904L25.0525 2.80823C25.6809 4.32503 26.8531 5.53626 28.3267 6.19177L29.3708 6.65625C29.9674 6.9222 29.9674 7.79084 29.3708 8.05681L28.2656 8.54829C26.8289 9.18726 25.6777 10.3555 25.0384 11.8224L24.679 12.6449C24.4166 13.2473 23.5836 13.2473 23.321 12.6449L22.9631 11.8224C22.3238 10.3553 21.1712 9.18732 19.7344 8.54829L18.6292 8.05681C18.0326 7.79087 18.0326 6.92217 18.6292 6.65625L19.6733 6.19177C21.1469 5.53626 22.3193 4.32506 22.9475 2.80823L23.3153 1.91904Z" fill="#4A0260"/>
</svg>
