<svg width="894" height="349" viewBox="0 0 894 349" fill="none" xmlns="http://www.w3.org/2000/svg">
<path d="M168.418 150.27C97.1698 147.657 0.745239 188.607 0.745239 188.607V322.789H894.255V150.27C894.255 150.27 825.592 174.307 778.747 170.221C703.971 163.698 746.261 96.0102 673.672 84.5481C621.094 76.2456 586.949 109.511 535.808 99.0225C484.349 88.4691 501.878 52.3841 453.089 38.7776C342.749 8.0049 433.439 189.891 308.518 188.607C246.83 187.974 229.968 152.527 168.418 150.27Z" fill="url(#paint0_linear_33_3021)"/>
<path d="M0.745239 188.607C0.745239 188.607 97.1698 147.657 168.418 150.27C229.968 152.527 246.83 187.974 308.518 188.607C433.439 189.891 342.749 8.0049 453.089 38.7776C501.878 52.3841 484.349 88.4691 535.808 99.0225C586.949 109.511 621.094 76.2456 673.672 84.5481C746.261 96.0102 703.971 163.698 778.747 170.221C825.592 174.307 894.255 150.27 894.255 150.27" stroke="#F1D6FF" stroke-width="5" stroke-linecap="round"/>
<path opacity="0.5" d="M32.3439 345.681C32.0639 345.681 31.7899 345.633 31.5219 345.537C31.2539 345.445 31.0099 345.305 30.7899 345.117L31.4319 344.337C31.5479 344.437 31.6819 344.519 31.8339 344.583C31.9899 344.643 32.1599 344.673 32.3439 344.673C32.6079 344.673 32.8479 344.603 33.0639 344.463C33.2799 344.323 33.4519 344.139 33.5799 343.911C33.7119 343.683 33.7779 343.439 33.7779 343.179V337.125H34.7859V343.179C34.7859 343.627 34.6759 344.041 34.4559 344.421C34.2359 344.797 33.9419 345.101 33.5739 345.333C33.2059 345.565 32.7959 345.681 32.3439 345.681ZM41.051 339.525H42.059V345.525H41.051L41.009 344.511C40.821 344.859 40.561 345.141 40.229 345.357C39.901 345.573 39.509 345.681 39.053 345.681C38.613 345.681 38.201 345.599 37.817 345.435C37.433 345.267 37.093 345.037 36.797 344.745C36.505 344.449 36.277 344.109 36.113 343.725C35.949 343.341 35.867 342.927 35.867 342.483C35.867 342.055 35.947 341.651 36.107 341.271C36.267 340.891 36.489 340.559 36.773 340.275C37.061 339.987 37.393 339.763 37.769 339.603C38.145 339.439 38.549 339.357 38.981 339.357C39.453 339.357 39.867 339.469 40.223 339.693C40.579 339.913 40.867 340.199 41.087 340.551L41.051 339.525ZM39.035 344.703C39.431 344.703 39.773 344.607 40.061 344.415C40.353 344.219 40.577 343.955 40.733 343.623C40.893 343.291 40.973 342.925 40.973 342.525C40.973 342.117 40.893 341.749 40.733 341.421C40.573 341.089 40.347 340.827 40.055 340.635C39.767 340.439 39.427 340.341 39.035 340.341C38.639 340.341 38.279 340.439 37.955 340.635C37.631 340.831 37.373 341.095 37.181 341.427C36.993 341.755 36.899 342.121 36.899 342.525C36.899 342.929 36.997 343.297 37.193 343.629C37.389 343.957 37.649 344.219 37.973 344.415C38.297 344.607 38.651 344.703 39.035 344.703ZM48.5622 341.793V345.525H47.5542V342.015C47.5542 341.711 47.4802 341.435 47.3322 341.187C47.1842 340.939 46.9862 340.743 46.7382 340.599C46.4902 340.451 46.2142 340.377 45.9102 340.377C45.6102 340.377 45.3342 340.451 45.0822 340.599C44.8342 340.743 44.6362 340.939 44.4882 341.187C44.3402 341.435 44.2662 341.711 44.2662 342.015V345.525H43.2582V339.525H44.2662V340.275C44.4782 339.995 44.7462 339.773 45.0702 339.609C45.3942 339.441 45.7462 339.357 46.1262 339.357C46.5742 339.357 46.9822 339.467 47.3502 339.687C47.7222 339.903 48.0162 340.195 48.2322 340.563C48.4522 340.931 48.5622 341.341 48.5622 341.793Z" fill="#454459"/>
<path opacity="0.5" d="M289.255 345.525L290.881 337.125H291.655L293.923 343.089L296.185 337.125H296.959L298.591 345.525H297.565L296.383 339.429L294.253 345.069H293.587L291.457 339.429L290.281 345.525H289.255ZM304.332 339.525H305.34V345.525H304.332L304.29 344.511C304.102 344.859 303.842 345.141 303.51 345.357C303.182 345.573 302.79 345.681 302.334 345.681C301.894 345.681 301.482 345.599 301.098 345.435C300.714 345.267 300.374 345.037 300.078 344.745C299.786 344.449 299.558 344.109 299.394 343.725C299.23 343.341 299.148 342.927 299.148 342.483C299.148 342.055 299.228 341.651 299.388 341.271C299.548 340.891 299.77 340.559 300.054 340.275C300.342 339.987 300.674 339.763 301.05 339.603C301.426 339.439 301.83 339.357 302.262 339.357C302.734 339.357 303.148 339.469 303.504 339.693C303.86 339.913 304.148 340.199 304.368 340.551L304.332 339.525ZM302.316 344.703C302.712 344.703 303.054 344.607 303.342 344.415C303.634 344.219 303.858 343.955 304.014 343.623C304.174 343.291 304.254 342.925 304.254 342.525C304.254 342.117 304.174 341.749 304.014 341.421C303.854 341.089 303.628 340.827 303.336 340.635C303.048 340.439 302.708 340.341 302.316 340.341C301.92 340.341 301.56 340.439 301.236 340.635C300.912 340.831 300.654 341.095 300.462 341.427C300.274 341.755 300.18 342.121 300.18 342.525C300.18 342.929 300.278 343.297 300.474 343.629C300.67 343.957 300.93 344.219 301.254 344.415C301.578 344.607 301.932 344.703 302.316 344.703ZM310.462 339.525H311.53L308.248 348.525H307.18L308.266 345.525L306.112 339.525H307.216L308.77 344.139L310.462 339.525Z" fill="#454459"/>
<path opacity="0.5" d="M95.6457 345.525V337.125H100.572V338.133H96.6537V340.521H99.9957V341.529H96.6537V345.525H95.6457ZM103.501 345.681C102.949 345.681 102.445 345.539 101.989 345.255C101.537 344.971 101.175 344.591 100.903 344.115C100.635 343.635 100.501 343.105 100.501 342.525C100.501 342.085 100.579 341.675 100.735 341.295C100.891 340.911 101.105 340.575 101.377 340.287C101.653 339.995 101.973 339.767 102.337 339.603C102.701 339.439 103.089 339.357 103.501 339.357C103.953 339.357 104.367 339.449 104.743 339.633C105.123 339.813 105.447 340.065 105.715 340.389C105.987 340.713 106.189 341.089 106.321 341.517C106.457 341.945 106.507 342.403 106.471 342.891H101.575C101.623 343.231 101.735 343.535 101.911 343.803C102.087 344.067 102.311 344.277 102.583 344.433C102.859 344.589 103.165 344.669 103.501 344.673C103.861 344.673 104.187 344.581 104.479 344.397C104.771 344.209 105.007 343.953 105.187 343.629L106.213 343.869C105.973 344.401 105.611 344.837 105.127 345.177C104.643 345.513 104.101 345.681 103.501 345.681ZM101.545 342.099H105.457C105.425 341.763 105.317 341.457 105.133 341.181C104.949 340.901 104.715 340.677 104.431 340.509C104.147 340.341 103.837 340.257 103.501 340.257C103.165 340.257 102.857 340.339 102.577 340.503C102.297 340.667 102.065 340.889 101.881 341.169C101.701 341.445 101.589 341.755 101.545 342.099ZM110.459 339.357C111.043 339.357 111.573 339.499 112.049 339.783C112.529 340.067 112.911 340.449 113.195 340.929C113.479 341.405 113.621 341.935 113.621 342.519C113.621 342.955 113.539 343.365 113.375 343.749C113.211 344.129 112.983 344.465 112.691 344.757C112.403 345.045 112.067 345.271 111.683 345.435C111.303 345.599 110.895 345.681 110.459 345.681C109.995 345.681 109.591 345.573 109.247 345.357C108.907 345.137 108.635 344.851 108.431 344.499V345.525H107.423V336.525H108.431V340.539C108.635 340.187 108.907 339.903 109.247 339.687C109.591 339.467 109.995 339.357 110.459 339.357ZM110.447 344.697C110.843 344.697 111.203 344.599 111.527 344.403C111.851 344.207 112.109 343.945 112.301 343.617C112.493 343.285 112.589 342.919 112.589 342.519C112.589 342.111 112.491 341.743 112.295 341.415C112.099 341.083 111.839 340.821 111.515 340.629C111.191 340.433 110.835 340.335 110.447 340.335C110.055 340.335 109.713 340.433 109.421 340.629C109.133 340.825 108.909 341.089 108.749 341.421C108.593 341.753 108.515 342.119 108.515 342.519C108.515 342.923 108.593 343.291 108.749 343.623C108.909 343.951 109.135 344.213 109.427 344.409C109.719 344.601 110.059 344.697 110.447 344.697Z" fill="#454459"/>
<path opacity="0.5" d="M159.278 345.525L160.904 337.125H161.678L163.946 343.089L166.208 337.125H166.982L168.614 345.525H167.588L166.406 339.429L164.276 345.069H163.61L161.48 339.429L160.304 345.525H159.278ZM174.356 339.525H175.364V345.525H174.356L174.314 344.511C174.126 344.859 173.866 345.141 173.534 345.357C173.206 345.573 172.814 345.681 172.358 345.681C171.918 345.681 171.506 345.599 171.122 345.435C170.738 345.267 170.398 345.037 170.102 344.745C169.81 344.449 169.582 344.109 169.418 343.725C169.254 343.341 169.172 342.927 169.172 342.483C169.172 342.055 169.252 341.651 169.412 341.271C169.572 340.891 169.794 340.559 170.078 340.275C170.366 339.987 170.698 339.763 171.074 339.603C171.45 339.439 171.854 339.357 172.286 339.357C172.758 339.357 173.172 339.469 173.528 339.693C173.884 339.913 174.172 340.199 174.392 340.551L174.356 339.525ZM172.34 344.703C172.736 344.703 173.078 344.607 173.366 344.415C173.658 344.219 173.882 343.955 174.038 343.623C174.198 343.291 174.278 342.925 174.278 342.525C174.278 342.117 174.198 341.749 174.038 341.421C173.878 341.089 173.652 340.827 173.36 340.635C173.072 340.439 172.732 340.341 172.34 340.341C171.944 340.341 171.584 340.439 171.26 340.635C170.936 340.831 170.678 341.095 170.486 341.427C170.298 341.755 170.204 342.121 170.204 342.525C170.204 342.929 170.302 343.297 170.498 343.629C170.694 343.957 170.954 344.219 171.278 344.415C171.602 344.607 171.956 344.703 172.34 344.703ZM176.563 345.525V339.525H177.571V340.275C177.783 339.995 178.051 339.773 178.375 339.609C178.699 339.441 179.051 339.357 179.431 339.357C179.663 339.357 179.887 339.387 180.103 339.447L179.695 340.455C179.531 340.403 179.371 340.377 179.215 340.377C178.915 340.377 178.639 340.451 178.387 340.599C178.139 340.743 177.941 340.939 177.793 341.187C177.645 341.435 177.571 341.711 177.571 342.015V345.525H176.563Z" fill="#454459"/>
<path opacity="0.5" d="M359.093 345.681C358.813 345.681 358.539 345.633 358.271 345.537C358.003 345.445 357.759 345.305 357.539 345.117L358.181 344.337C358.297 344.437 358.431 344.519 358.583 344.583C358.739 344.643 358.909 344.673 359.093 344.673C359.357 344.673 359.597 344.603 359.813 344.463C360.029 344.323 360.201 344.139 360.329 343.911C360.461 343.683 360.527 343.439 360.527 343.179V337.125H361.535V343.179C361.535 343.627 361.425 344.041 361.205 344.421C360.985 344.797 360.691 345.101 360.323 345.333C359.955 345.565 359.545 345.681 359.093 345.681ZM362.736 343.245V339.525H363.744V343.023C363.744 343.327 363.818 343.603 363.966 343.851C364.114 344.099 364.312 344.297 364.56 344.445C364.812 344.589 365.088 344.661 365.388 344.661C365.692 344.661 365.966 344.589 366.21 344.445C366.458 344.297 366.656 344.099 366.804 343.851C366.952 343.603 367.026 343.327 367.026 343.023V339.525H368.034L368.04 345.525H367.032L367.026 344.763C366.814 345.043 366.546 345.267 366.222 345.435C365.898 345.599 365.548 345.681 365.172 345.681C364.724 345.681 364.314 345.573 363.942 345.357C363.574 345.137 363.28 344.843 363.06 344.475C362.844 344.107 362.736 343.697 362.736 343.245ZM374.549 341.793V345.525H373.541V342.015C373.541 341.711 373.467 341.435 373.319 341.187C373.171 340.939 372.973 340.743 372.725 340.599C372.477 340.451 372.201 340.377 371.897 340.377C371.597 340.377 371.321 340.451 371.069 340.599C370.821 340.743 370.623 340.939 370.475 341.187C370.327 341.435 370.253 341.711 370.253 342.015V345.525H369.245V339.525H370.253V340.275C370.465 339.995 370.733 339.773 371.057 339.609C371.381 339.441 371.733 339.357 372.113 339.357C372.561 339.357 372.969 339.467 373.337 339.687C373.709 339.903 374.003 340.195 374.219 340.563C374.439 340.931 374.549 341.341 374.549 341.793Z" fill="#454459"/>
<path d="M225.713 345.525H227.295L228.01 343.34H231.157L231.871 345.525H233.459L230.436 337.07H228.737L225.713 345.525ZM229.569 338.576H229.604L230.776 342.174H228.391L229.569 338.576ZM234.215 347.576H235.674V344.476H235.703C236.055 345.203 236.764 345.648 237.649 345.648C239.207 345.648 240.203 344.418 240.203 342.426V342.42C240.203 340.416 239.207 339.185 237.631 339.185C236.741 339.185 236.061 339.642 235.703 340.387H235.674V339.314H234.215V347.576ZM237.198 344.418C236.295 344.418 235.662 343.639 235.662 342.426V342.42C235.662 341.201 236.295 340.416 237.198 340.416C238.129 340.416 238.715 341.178 238.715 342.42V342.426C238.715 343.65 238.129 344.418 237.198 344.418ZM241.141 345.525H242.6V341.922C242.6 341.002 243.098 340.48 243.924 340.48C244.17 340.48 244.393 340.516 244.516 340.562V339.244C244.405 339.215 244.235 339.185 244.053 339.185C243.338 339.185 242.823 339.637 242.629 340.387H242.6V339.314H241.141V345.525Z" fill="#454459"/>
<path opacity="0.5" d="M424.459 345.681C424.179 345.681 423.905 345.633 423.637 345.537C423.369 345.445 423.125 345.305 422.905 345.117L423.547 344.337C423.663 344.437 423.797 344.519 423.949 344.583C424.105 344.643 424.275 344.673 424.459 344.673C424.723 344.673 424.963 344.603 425.179 344.463C425.395 344.323 425.567 344.139 425.695 343.911C425.827 343.683 425.893 343.439 425.893 343.179V337.125H426.901V343.179C426.901 343.627 426.791 344.041 426.571 344.421C426.351 344.797 426.057 345.101 425.689 345.333C425.321 345.565 424.911 345.681 424.459 345.681ZM428.102 343.245V339.525H429.11V343.023C429.11 343.327 429.184 343.603 429.332 343.851C429.48 344.099 429.678 344.297 429.926 344.445C430.178 344.589 430.454 344.661 430.754 344.661C431.058 344.661 431.332 344.589 431.576 344.445C431.824 344.297 432.022 344.099 432.17 343.851C432.318 343.603 432.392 343.327 432.392 343.023V339.525H433.4L433.406 345.525H432.398L432.392 344.763C432.18 345.043 431.912 345.267 431.588 345.435C431.264 345.599 430.914 345.681 430.538 345.681C430.09 345.681 429.68 345.573 429.308 345.357C428.94 345.137 428.646 344.843 428.426 344.475C428.21 344.107 428.102 343.697 428.102 343.245ZM434.682 345.525V336.525H435.69V345.525H434.682Z" fill="#454459"/>
<path opacity="0.5" d="M483.447 337.125H484.665L487.719 345.525H486.651L486.027 343.809H482.085L481.467 345.525H480.393L483.447 337.125ZM482.457 342.801H485.655L484.053 338.415L482.457 342.801ZM488.268 343.245V339.525H489.276V343.023C489.276 343.327 489.35 343.603 489.498 343.851C489.646 344.099 489.844 344.297 490.092 344.445C490.344 344.589 490.62 344.661 490.92 344.661C491.224 344.661 491.498 344.589 491.742 344.445C491.99 344.297 492.188 344.099 492.336 343.851C492.484 343.603 492.558 343.327 492.558 343.023V339.525H493.566L493.572 345.525H492.564L492.558 344.763C492.346 345.043 492.078 345.267 491.754 345.435C491.43 345.599 491.08 345.681 490.704 345.681C490.256 345.681 489.846 345.573 489.474 345.357C489.106 345.137 488.812 344.843 488.592 344.475C488.376 344.107 488.268 343.697 488.268 343.245ZM499.405 339.525H500.413V345.717C500.413 346.113 500.327 346.481 500.155 346.821C499.987 347.165 499.759 347.463 499.471 347.715C499.183 347.971 498.855 348.169 498.487 348.309C498.119 348.453 497.735 348.525 497.335 348.525C496.919 348.525 496.517 348.431 496.129 348.243C495.741 348.059 495.401 347.811 495.109 347.499C494.821 347.191 494.613 346.845 494.485 346.461L495.409 346.041C495.485 346.317 495.621 346.565 495.817 346.785C496.017 347.009 496.249 347.185 496.513 347.313C496.781 347.445 497.055 347.511 497.335 347.511C497.599 347.511 497.853 347.465 498.097 347.373C498.345 347.281 498.567 347.153 498.763 346.989C498.963 346.829 499.119 346.639 499.231 346.419C499.347 346.203 499.405 345.969 499.405 345.717V344.523C499.201 344.867 498.931 345.147 498.595 345.363C498.263 345.575 497.875 345.681 497.431 345.681C497.007 345.681 496.609 345.599 496.237 345.435C495.865 345.271 495.539 345.045 495.259 344.757C494.979 344.465 494.759 344.129 494.599 343.749C494.439 343.369 494.359 342.961 494.359 342.525C494.359 342.089 494.439 341.681 494.599 341.301C494.759 340.917 494.979 340.581 495.259 340.293C495.539 340.001 495.865 339.773 496.237 339.609C496.609 339.445 497.007 339.363 497.431 339.363C497.875 339.363 498.263 339.469 498.595 339.681C498.931 339.893 499.201 340.173 499.405 340.521V339.525ZM497.437 344.703C497.825 344.703 498.161 344.603 498.445 344.403C498.733 344.203 498.955 343.937 499.111 343.605C499.267 343.273 499.345 342.913 499.345 342.525C499.345 342.125 499.265 341.761 499.105 341.433C498.949 341.101 498.727 340.837 498.439 340.641C498.155 340.441 497.821 340.341 497.437 340.341C497.061 340.341 496.717 340.439 496.405 340.635C496.093 340.831 495.845 341.095 495.661 341.427C495.481 341.755 495.391 342.121 495.391 342.525C495.391 342.929 495.483 343.297 495.667 343.629C495.855 343.957 496.103 344.219 496.411 344.415C496.723 344.607 497.065 344.703 497.437 344.703Z" fill="#454459"/>
<path opacity="0.5" d="M545.43 345.681C544.978 345.681 544.542 345.611 544.122 345.471C543.702 345.327 543.334 345.123 543.018 344.859C542.706 344.595 542.484 344.281 542.352 343.917L543.294 343.563C543.374 343.787 543.522 343.983 543.738 344.151C543.958 344.315 544.216 344.443 544.512 344.535C544.808 344.627 545.114 344.673 545.43 344.673C545.79 344.673 546.124 344.615 546.432 344.499C546.744 344.379 546.996 344.213 547.188 344.001C547.38 343.789 547.476 343.541 547.476 343.257C547.476 342.965 547.376 342.727 547.176 342.543C546.976 342.355 546.72 342.207 546.408 342.099C546.096 341.987 545.77 341.901 545.43 341.841C544.85 341.745 544.33 341.609 543.87 341.433C543.414 341.253 543.052 341.003 542.784 340.683C542.52 340.363 542.388 339.941 542.388 339.417C542.388 338.929 542.528 338.503 542.808 338.139C543.092 337.775 543.466 337.493 543.93 337.293C544.394 337.093 544.894 336.993 545.43 336.993C545.874 336.993 546.304 337.063 546.72 337.203C547.14 337.339 547.51 337.539 547.83 337.803C548.15 338.067 548.38 338.389 548.52 338.769L547.566 339.117C547.486 338.889 547.336 338.693 547.116 338.529C546.9 338.361 546.644 338.233 546.348 338.145C546.056 338.053 545.75 338.007 545.43 338.007C545.074 338.003 544.742 338.061 544.434 338.181C544.126 338.301 543.876 338.467 543.684 338.679C543.492 338.891 543.396 339.137 543.396 339.417C543.396 339.753 543.484 340.011 543.66 340.191C543.84 340.367 544.084 340.499 544.392 340.587C544.7 340.675 545.046 340.753 545.43 340.821C545.974 340.913 546.478 341.059 546.942 341.259C547.406 341.455 547.778 341.717 548.058 342.045C548.342 342.373 548.484 342.777 548.484 343.257C548.484 343.745 548.342 344.171 548.058 344.535C547.778 344.899 547.406 345.181 546.942 345.381C546.478 345.581 545.974 345.681 545.43 345.681ZM552.378 345.681C551.826 345.681 551.322 345.539 550.866 345.255C550.414 344.971 550.052 344.591 549.78 344.115C549.512 343.635 549.378 343.105 549.378 342.525C549.378 342.085 549.456 341.675 549.612 341.295C549.768 340.911 549.982 340.575 550.254 340.287C550.53 339.995 550.85 339.767 551.214 339.603C551.578 339.439 551.966 339.357 552.378 339.357C552.83 339.357 553.244 339.449 553.62 339.633C554 339.813 554.324 340.065 554.592 340.389C554.864 340.713 555.066 341.089 555.198 341.517C555.334 341.945 555.384 342.403 555.348 342.891H550.452C550.5 343.231 550.612 343.535 550.788 343.803C550.964 344.067 551.188 344.277 551.46 344.433C551.736 344.589 552.042 344.669 552.378 344.673C552.738 344.673 553.064 344.581 553.356 344.397C553.648 344.209 553.884 343.953 554.064 343.629L555.09 343.869C554.85 344.401 554.488 344.837 554.004 345.177C553.52 345.513 552.978 345.681 552.378 345.681ZM550.422 342.099H554.334C554.302 341.763 554.194 341.457 554.01 341.181C553.826 340.901 553.592 340.677 553.308 340.509C553.024 340.341 552.714 340.257 552.378 340.257C552.042 340.257 551.734 340.339 551.454 340.503C551.174 340.667 550.942 340.889 550.758 341.169C550.578 341.445 550.466 341.755 550.422 342.099ZM557.367 348.525H556.359V339.525H557.367V340.551C557.571 340.199 557.843 339.915 558.183 339.699C558.523 339.479 558.927 339.369 559.395 339.369C559.831 339.369 560.239 339.451 560.619 339.615C561.003 339.779 561.339 340.007 561.627 340.299C561.915 340.587 562.141 340.921 562.305 341.301C562.469 341.681 562.551 342.089 562.551 342.525C562.551 342.961 562.469 343.371 562.305 343.755C562.141 344.139 561.915 344.477 561.627 344.769C561.339 345.057 561.003 345.283 560.619 345.447C560.239 345.611 559.831 345.693 559.395 345.693C558.927 345.693 558.523 345.585 558.183 345.369C557.843 345.149 557.571 344.863 557.367 344.511V348.525ZM559.383 340.347C558.995 340.347 558.655 340.445 558.363 340.641C558.071 340.837 557.845 341.099 557.685 341.427C557.529 341.755 557.451 342.121 557.451 342.525C557.451 342.925 557.529 343.291 557.685 343.623C557.845 343.955 558.069 344.219 558.357 344.415C558.649 344.611 558.991 344.709 559.383 344.709C559.771 344.709 560.127 344.613 560.451 344.421C560.775 344.225 561.035 343.963 561.231 343.635C561.427 343.303 561.525 342.933 561.525 342.525C561.525 342.125 561.429 341.761 561.237 341.433C561.045 341.101 560.787 340.837 560.463 340.641C560.139 340.445 559.779 340.347 559.383 340.347Z" fill="#454459"/>
<path opacity="0.5" d="M609.05 345.681C608.482 345.681 607.948 345.569 607.448 345.345C606.948 345.117 606.508 344.803 606.128 344.403C605.748 344.003 605.45 343.541 605.234 343.017C605.018 342.489 604.91 341.925 604.91 341.325C604.91 340.725 605.018 340.163 605.234 339.639C605.45 339.111 605.748 338.647 606.128 338.247C606.508 337.847 606.948 337.535 607.448 337.311C607.948 337.083 608.482 336.969 609.05 336.969C609.622 336.969 610.158 337.083 610.658 337.311C611.158 337.535 611.598 337.847 611.978 338.247C612.358 338.647 612.654 339.111 612.866 339.639C613.082 340.163 613.19 340.725 613.19 341.325C613.19 341.925 613.082 342.489 612.866 343.017C612.654 343.541 612.358 344.003 611.978 344.403C611.598 344.803 611.158 345.117 610.658 345.345C610.158 345.569 609.622 345.681 609.05 345.681ZM609.05 344.673C609.486 344.673 609.892 344.585 610.268 344.409C610.648 344.233 610.98 343.991 611.264 343.683C611.552 343.371 611.776 343.015 611.936 342.615C612.1 342.211 612.182 341.781 612.182 341.325C612.182 340.869 612.1 340.439 611.936 340.035C611.772 339.627 611.546 339.271 611.258 338.967C610.974 338.659 610.642 338.417 610.262 338.241C609.886 338.065 609.482 337.977 609.05 337.977C608.614 337.977 608.206 338.065 607.826 338.241C607.45 338.417 607.118 338.661 606.83 338.973C606.546 339.281 606.322 339.637 606.158 340.041C605.998 340.441 605.918 340.869 605.918 341.325C605.918 341.785 606 342.217 606.164 342.621C606.328 343.025 606.552 343.381 606.836 343.689C607.124 343.997 607.456 344.239 607.832 344.415C608.212 344.587 608.618 344.673 609.05 344.673ZM618.412 343.941L619.312 344.427C619.04 344.807 618.694 345.111 618.274 345.339C617.858 345.567 617.406 345.681 616.918 345.681C616.366 345.681 615.862 345.539 615.406 345.255C614.954 344.971 614.592 344.591 614.32 344.115C614.052 343.635 613.918 343.105 613.918 342.525C613.918 342.085 613.996 341.675 614.152 341.295C614.308 340.911 614.522 340.575 614.794 340.287C615.07 339.995 615.39 339.767 615.754 339.603C616.118 339.439 616.506 339.357 616.918 339.357C617.406 339.357 617.858 339.471 618.274 339.699C618.694 339.927 619.04 340.233 619.312 340.617L618.412 341.103C618.22 340.867 617.992 340.685 617.728 340.557C617.464 340.429 617.194 340.365 616.918 340.365C616.546 340.365 616.208 340.465 615.904 340.665C615.604 340.861 615.366 341.123 615.19 341.451C615.014 341.779 614.926 342.137 614.926 342.525C614.926 342.913 615.014 343.271 615.19 343.599C615.37 343.923 615.61 344.183 615.91 344.379C616.214 344.575 616.55 344.673 616.918 344.673C617.214 344.673 617.492 344.605 617.752 344.469C618.012 344.333 618.232 344.157 618.412 343.941ZM623.504 340.533H622.142L622.136 345.525H621.128L621.134 340.533H620.102V339.525H621.134L621.128 337.641H622.136L622.142 339.525H623.504V340.533Z" fill="#454459"/>
<path opacity="0.5" d="M666.955 345.525V337.125H668.047L672.241 343.701V337.125H673.249V345.525H672.163L667.963 338.949V345.525H666.955ZM677.271 345.681C676.719 345.681 676.215 345.539 675.759 345.255C675.307 344.971 674.945 344.591 674.673 344.115C674.405 343.635 674.271 343.105 674.271 342.525C674.271 342.085 674.349 341.675 674.505 341.295C674.661 340.911 674.875 340.575 675.147 340.287C675.423 339.995 675.743 339.767 676.107 339.603C676.471 339.439 676.859 339.357 677.271 339.357C677.823 339.357 678.325 339.499 678.777 339.783C679.233 340.067 679.595 340.449 679.863 340.929C680.135 341.409 680.271 341.941 680.271 342.525C680.271 342.961 680.193 343.369 680.037 343.749C679.881 344.129 679.665 344.465 679.389 344.757C679.117 345.045 678.799 345.271 678.435 345.435C678.075 345.599 677.687 345.681 677.271 345.681ZM677.271 344.673C677.647 344.673 677.985 344.575 678.285 344.379C678.589 344.179 678.827 343.917 678.999 343.593C679.175 343.265 679.263 342.909 679.263 342.525C679.263 342.133 679.173 341.773 678.993 341.445C678.817 341.117 678.579 340.855 678.279 340.659C677.979 340.463 677.643 340.365 677.271 340.365C676.895 340.365 676.557 340.465 676.257 340.665C675.957 340.861 675.719 341.123 675.543 341.451C675.367 341.779 675.279 342.137 675.279 342.525C675.279 342.925 675.369 343.289 675.549 343.617C675.729 343.941 675.971 344.199 676.275 344.391C676.579 344.579 676.911 344.673 677.271 344.673ZM684.126 345.525H682.836L680.646 339.513H681.72L683.478 344.355L685.236 339.513H686.31L684.126 345.525Z" fill="#454459"/>
<path opacity="0.5" d="M728.654 345.525V337.125H731.432C732.012 337.125 732.556 337.235 733.064 337.455C733.572 337.671 734.018 337.973 734.402 338.361C734.786 338.745 735.086 339.191 735.302 339.699C735.522 340.203 735.632 340.745 735.632 341.325C735.632 341.905 735.522 342.449 735.302 342.957C735.086 343.461 734.786 343.907 734.402 344.295C734.018 344.679 733.572 344.981 733.064 345.201C732.556 345.417 732.012 345.525 731.432 345.525H728.654ZM729.662 344.517H731.432C731.872 344.517 732.284 344.435 732.668 344.271C733.056 344.103 733.396 343.873 733.688 343.581C733.98 343.289 734.208 342.951 734.372 342.567C734.54 342.179 734.624 341.765 734.624 341.325C734.624 340.885 734.54 340.473 734.372 340.089C734.208 339.701 733.978 339.361 733.682 339.069C733.39 338.777 733.052 338.549 732.668 338.385C732.284 338.217 731.872 338.133 731.432 338.133H729.662V344.517ZM739.251 345.681C738.699 345.681 738.195 345.539 737.739 345.255C737.287 344.971 736.925 344.591 736.653 344.115C736.385 343.635 736.251 343.105 736.251 342.525C736.251 342.085 736.329 341.675 736.485 341.295C736.641 340.911 736.855 340.575 737.127 340.287C737.403 339.995 737.723 339.767 738.087 339.603C738.451 339.439 738.839 339.357 739.251 339.357C739.703 339.357 740.117 339.449 740.493 339.633C740.873 339.813 741.197 340.065 741.465 340.389C741.737 340.713 741.939 341.089 742.071 341.517C742.207 341.945 742.257 342.403 742.221 342.891H737.325C737.373 343.231 737.485 343.535 737.661 343.803C737.837 344.067 738.061 344.277 738.333 344.433C738.609 344.589 738.915 344.669 739.251 344.673C739.611 344.673 739.937 344.581 740.229 344.397C740.521 344.209 740.757 343.953 740.937 343.629L741.963 343.869C741.723 344.401 741.361 344.837 740.877 345.177C740.393 345.513 739.851 345.681 739.251 345.681ZM737.295 342.099H741.207C741.175 341.763 741.067 341.457 740.883 341.181C740.699 340.901 740.465 340.677 740.181 340.509C739.897 340.341 739.587 340.257 739.251 340.257C738.915 340.257 738.607 340.339 738.327 340.503C738.047 340.667 737.815 340.889 737.631 341.169C737.451 341.445 737.339 341.755 737.295 342.099ZM747.331 343.941L748.231 344.427C747.959 344.807 747.613 345.111 747.193 345.339C746.777 345.567 746.325 345.681 745.837 345.681C745.285 345.681 744.781 345.539 744.325 345.255C743.873 344.971 743.511 344.591 743.239 344.115C742.971 343.635 742.837 343.105 742.837 342.525C742.837 342.085 742.915 341.675 743.071 341.295C743.227 340.911 743.441 340.575 743.713 340.287C743.989 339.995 744.309 339.767 744.673 339.603C745.037 339.439 745.425 339.357 745.837 339.357C746.325 339.357 746.777 339.471 747.193 339.699C747.613 339.927 747.959 340.233 748.231 340.617L747.331 341.103C747.139 340.867 746.911 340.685 746.647 340.557C746.383 340.429 746.113 340.365 745.837 340.365C745.465 340.365 745.127 340.465 744.823 340.665C744.523 340.861 744.285 341.123 744.109 341.451C743.933 341.779 743.845 342.137 743.845 342.525C743.845 342.913 743.933 343.271 744.109 343.599C744.289 343.923 744.529 344.183 744.829 344.379C745.133 344.575 745.469 344.673 745.837 344.673C746.133 344.673 746.411 344.605 746.671 344.469C746.931 344.333 747.151 344.157 747.331 343.941Z" fill="#454459"/>
<path opacity="0.5" d="M795.319 345.681C795.039 345.681 794.765 345.633 794.497 345.537C794.229 345.445 793.985 345.305 793.765 345.117L794.407 344.337C794.523 344.437 794.657 344.519 794.809 344.583C794.965 344.643 795.135 344.673 795.319 344.673C795.583 344.673 795.823 344.603 796.039 344.463C796.255 344.323 796.427 344.139 796.555 343.911C796.687 343.683 796.753 343.439 796.753 343.179V337.125H797.761V343.179C797.761 343.627 797.651 344.041 797.431 344.421C797.211 344.797 796.917 345.101 796.549 345.333C796.181 345.565 795.771 345.681 795.319 345.681ZM798.962 343.245V339.525H799.97V343.023C799.97 343.327 800.044 343.603 800.192 343.851C800.34 344.099 800.538 344.297 800.786 344.445C801.038 344.589 801.314 344.661 801.614 344.661C801.918 344.661 802.192 344.589 802.436 344.445C802.684 344.297 802.882 344.099 803.03 343.851C803.178 343.603 803.252 343.327 803.252 343.023V339.525H804.26L804.266 345.525H803.258L803.252 344.763C803.04 345.043 802.772 345.267 802.448 345.435C802.124 345.599 801.774 345.681 801.398 345.681C800.95 345.681 800.54 345.573 800.168 345.357C799.8 345.137 799.506 344.843 799.286 344.475C799.07 344.107 798.962 343.697 798.962 343.245ZM805.542 345.525V336.525H806.55V345.525H805.542Z" fill="#454459"/>
<path opacity="0.5" d="M857.129 345.681C856.849 345.681 856.575 345.633 856.307 345.537C856.039 345.445 855.795 345.305 855.575 345.117L856.217 344.337C856.333 344.437 856.467 344.519 856.619 344.583C856.775 344.643 856.945 344.673 857.129 344.673C857.393 344.673 857.633 344.603 857.849 344.463C858.065 344.323 858.237 344.139 858.365 343.911C858.497 343.683 858.563 343.439 858.563 343.179V337.125H859.571V343.179C859.571 343.627 859.461 344.041 859.241 344.421C859.021 344.797 858.727 345.101 858.359 345.333C857.991 345.565 857.581 345.681 857.129 345.681ZM860.772 343.245V339.525H861.78V343.023C861.78 343.327 861.854 343.603 862.002 343.851C862.15 344.099 862.348 344.297 862.596 344.445C862.848 344.589 863.124 344.661 863.424 344.661C863.728 344.661 864.002 344.589 864.246 344.445C864.494 344.297 864.692 344.099 864.84 343.851C864.988 343.603 865.062 343.327 865.062 343.023V339.525H866.07L866.076 345.525H865.068L865.062 344.763C864.85 345.043 864.582 345.267 864.258 345.435C863.934 345.599 863.584 345.681 863.208 345.681C862.76 345.681 862.35 345.573 861.978 345.357C861.61 345.137 861.316 344.843 861.096 344.475C860.88 344.107 860.772 343.697 860.772 343.245ZM867.352 345.525V336.525H868.36V345.525H867.352Z" fill="#454459"/>
<path opacity="0.3" d="M40.2937 320.442V7.48157" stroke="#171724" stroke-linecap="round" stroke-dasharray="0 1 14 0 1 14"/>
<path opacity="0.3" d="M104.842 320.442V7.48157" stroke="#171724" stroke-linecap="round" stroke-dasharray="0 1 14 0 1 14"/>
<path opacity="0.3" d="M169.39 320.442V7.48157" stroke="#171724" stroke-linecap="round" stroke-dasharray="0 1 14 0 1 14"/>
<path opacity="0.3" d="M233.938 322.789V9.82874" stroke="#171724" stroke-linecap="round" stroke-dasharray="0 1 14 0 1 14"/>
<path opacity="0.3" d="M298.486 322.789V9.82874" stroke="#171724" stroke-linecap="round" stroke-dasharray="0 1 14 0 1 14"/>
<path opacity="0.3" d="M363.034 322.789V9.82874" stroke="#171724" stroke-linecap="round" stroke-dasharray="0 1 14 0 1 14"/>
<path opacity="0.3" d="M427.582 322.789V9.82874" stroke="#171724" stroke-linecap="round" stroke-dasharray="0 1 14 0 1 14"/>
<path opacity="0.3" d="M489.392 322.789V9.82874" stroke="#171724" stroke-linecap="round" stroke-dasharray="0 1 14 0 1 14"/>
<path opacity="0.3" d="M551.202 322.789V9.82874" stroke="#171724" stroke-linecap="round" stroke-dasharray="0 1 14 0 1 14"/>
<path opacity="0.3" d="M613.012 322.789V9.82874" stroke="#171724" stroke-linecap="round" stroke-dasharray="0 1 14 0 1 14"/>
<path opacity="0.3" d="M674.822 322.789V9.82874" stroke="#171724" stroke-linecap="round" stroke-dasharray="0 1 14 0 1 14"/>
<path opacity="0.3" d="M736.632 322.789V9.82874" stroke="#171724" stroke-linecap="round" stroke-dasharray="0 1 14 0 1 14"/>
<path opacity="0.3" d="M798.442 322.789V9.82874" stroke="#171724" stroke-linecap="round" stroke-dasharray="0 1 14 0 1 14"/>
<path opacity="0.3" d="M860.252 322.789V9.82874" stroke="#171724" stroke-linecap="round" stroke-dasharray="0 1 14 0 1 14"/>
<g filter="url(#filter0_d_33_3021)">
<circle cx="427.582" cy="35.648" r="15.648" fill="#88128B"/>
<circle cx="427.582" cy="35.648" r="11.648" stroke="white" stroke-width="8"/>
</g>
<defs>
<filter id="filter0_d_33_3021" x="386.934" y="0" width="81.2961" height="81.296" filterUnits="userSpaceOnUse" color-interpolation-filters="sRGB">
<feFlood flood-opacity="0" result="BackgroundImageFix"/>
<feColorMatrix in="SourceAlpha" type="matrix" values="0 0 0 0 0 0 0 0 0 0 0 0 0 0 0 0 0 0 127 0" result="hardAlpha"/>
<feOffset dy="5"/>
<feGaussianBlur stdDeviation="12.5"/>
<feColorMatrix type="matrix" values="0 0 0 0 0 0 0 0 0 0 0 0 0 0 0 0 0 0 0.1 0"/>
<feBlend mode="normal" in2="BackgroundImageFix" result="effect1_dropShadow_33_3021"/>
<feBlend mode="normal" in="SourceGraphic" in2="effect1_dropShadow_33_3021" result="shape"/>
</filter>
<linearGradient id="paint0_linear_33_3021" x1="447.5" y1="35.2704" x2="447.5" y2="322.789" gradientUnits="userSpaceOnUse">
<stop stop-color="#F1D6FF"/>
<stop offset="1" stop-color="#F4F3FF" stop-opacity="0"/>
</linearGradient>
</defs>
</svg>
