<svg width="20" height="20" viewBox="0 0 20 20" fill="none" xmlns="http://www.w3.org/2000/svg">
<path d="M4.47368 2.69789e-06C6.94443 2.69789e-06 8.94737 2.00294 8.94737 4.47369V8.94737H4.47368C2.00294 8.94737 0 6.94443 0 4.47369C0 2.00294 2.00294 2.69789e-06 4.47368 2.69789e-06ZM4.47368 11.0526H8.94737V15.5263C8.94737 17.9971 6.94443 20 4.47368 20C2.00294 20 0 17.9971 0 15.5263C0 13.0556 2.00294 11.0526 4.47368 11.0526ZM11.0526 11.0526H15.5263C17.9971 11.0526 20 13.0556 20 15.5263C20 17.9971 17.9971 20 15.5263 20C13.0556 20 11.0526 17.9971 11.0526 15.5263V11.0526ZM16.3242 7.9679L16.0484 8.60021C15.8466 9.06306 15.206 9.06306 15.0041 8.60021L14.7284 7.9679C14.2369 6.84039 13.3516 5.94273 12.2468 5.45164L11.3972 5.07398C10.9378 4.86977 10.9378 4.20163 11.3972 3.99741L12.1993 3.64086C13.3324 3.13714 14.2337 2.20626 14.7167 1.0405L14.9999 0.357182C15.1973 -0.119061 15.8554 -0.119061 16.0526 0.357182L16.3358 1.0405C16.8189 2.20626 17.7202 3.13714 18.8534 3.64086L19.6554 3.99741C20.1148 4.20163 20.1148 4.86977 19.6554 5.07398L18.8059 5.45164C17.7011 5.94273 16.8158 6.84039 16.3242 7.9679Z" fill="#4A0260"/>
</svg>
