<svg width="16" height="16" viewBox="0 0 16 16" fill="none" xmlns="http://www.w3.org/2000/svg">
<path d="M12.9166 8.07895L4.99472 16H1.60032V12.6056L9.52136 4.68451L12.9166 8.07895ZM12.3509 1.85505C12.6633 1.54297 13.1699 1.54275 13.4823 1.85505L15.7452 4.11877C16.0576 4.43127 16.0577 4.9378 15.7452 5.25025L14.0481 6.94745L10.6529 3.55304L12.3509 1.85505ZM2.82398 0.255525C2.96524 -0.0851763 3.43601 -0.0851739 3.57726 0.255525L3.77964 0.744684C4.12524 1.57908 4.77016 2.24537 5.58077 2.60598L6.1551 2.8615C6.48339 3.00778 6.48335 3.48564 6.1551 3.63196L5.54717 3.90232C4.75689 4.25382 4.12351 4.89652 3.77182 5.70346L3.57413 6.15589C3.42975 6.48726 2.9715 6.48726 2.82711 6.15589L2.62942 5.70346C2.27773 4.89652 1.64437 4.25382 0.854077 3.90232L0.246144 3.63196C-0.0820288 3.48564 -0.0820672 3.00778 0.246144 2.8615L0.820479 2.60598C1.63107 2.24538 2.27601 1.57909 2.6216 0.744684L2.82398 0.255525Z" fill="#4A0260"/>
</svg>
