<svg width="14" height="14" viewBox="0 0 14 14" fill="none" xmlns="http://www.w3.org/2000/svg">
<path d="M11.302 7.06908L4.37038 14H1.40028V11.0299L8.33119 4.09894L11.302 7.06908ZM10.807 1.62317C11.0804 1.35009 11.5237 1.34991 11.797 1.62317L13.777 3.60393C14.0504 3.87736 14.0504 4.32057 13.777 4.59397L12.2921 6.07902L9.32125 3.10891L10.807 1.62317ZM2.47099 0.223585C2.59458 -0.0745293 3.00651 -0.0745272 3.1301 0.223585L3.30719 0.651598C3.60958 1.38169 4.17389 1.9647 4.88318 2.28023L5.38571 2.50381C5.67296 2.63181 5.67293 3.04993 5.38571 3.17797L4.85378 3.41453C4.16228 3.72209 3.60807 4.28446 3.30035 4.99052L3.12736 5.38641C3.00103 5.67635 2.60006 5.67635 2.47372 5.38641L2.30074 4.99052C1.99301 4.28446 1.43882 3.72209 0.747318 3.41453L0.215376 3.17797C-0.0717752 3.04994 -0.0718088 2.63181 0.215376 2.50381L0.717919 2.28023C1.42719 1.96471 1.99151 1.38171 2.2939 0.651598L2.47099 0.223585Z" fill="white"/>
</svg>
