<svg width="53" height="32" viewBox="0 0 53 32" fill="none" xmlns="http://www.w3.org/2000/svg">
<path d="M38.6724 15.5623L38.134 16.7973C37.7401 17.7014 36.4896 17.7014 36.0955 16.7973L35.5573 15.5623C34.5978 13.3602 32.8696 11.6069 30.713 10.6478L29.0544 9.91015C28.1577 9.51129 28.1577 8.20634 29.0544 7.80748L30.6202 7.11108C32.8322 6.12725 34.5915 4.3091 35.5344 2.03221L36.0872 0.697607C36.4726 -0.232536 37.7572 -0.232536 38.1423 0.697607L38.6951 2.03221C39.6382 4.3091 41.3975 6.12725 43.6095 7.11108L45.1751 7.80748C46.072 8.20634 46.072 9.51129 45.1751 9.91015L43.5167 10.6478C41.3601 11.6069 39.6319 13.3602 38.6724 15.5623ZM6.1751 19.6493L15.4378 28.912L12.3502 31.9996L0 19.6493L12.3502 7.2991L15.4378 10.3867L6.1751 19.6493ZM40.0467 32L52.397 19.6497L46.222 13.4746L43.1342 16.5622L46.222 19.6497L36.9592 28.9123L40.0467 32Z" fill="#4A0260"/>
</svg>
