<svg width="35" height="32" viewBox="0 0 35 32" fill="none" xmlns="http://www.w3.org/2000/svg">
<path d="M7.18287 10.8627L6.8071 11.7248C6.53211 12.3559 5.6592 12.3559 5.38421 11.7248L5.00847 10.8627C4.33871 9.32562 3.13235 8.10181 1.62705 7.43231L0.46944 6.91743C-0.15648 6.63903 -0.15648 5.72815 0.46944 5.44974L1.56233 4.96364C3.10634 4.27691 4.3343 3.00782 4.99256 1.41851L5.37842 0.486946C5.64733 -0.162315 6.54399 -0.162315 6.81291 0.486946L7.19875 1.41851C7.85701 3.00782 9.085 4.27691 10.6291 4.96364L11.7219 5.44974C12.3479 5.72815 12.3479 6.63903 11.7219 6.91743L10.5643 7.43231C9.05899 8.10181 7.8526 9.32562 7.18287 10.8627ZM27.7778 3.61368L20.2508 9.46798C14.2369 7.9842 8.47063 11.5002 6.85766 17.52C6.70262 18.0986 6.65417 18.6864 6.60343 19.302C6.42836 21.4262 6.22606 23.881 1.52393 27.4255C5.33374 29.7114 12.1914 32 17.5276 32C22.5757 32 27.1964 28.634 28.5651 23.5259C29.082 21.5969 29.0731 19.651 28.6265 17.8401L34.4793 10.3151C34.9511 9.70847 34.8974 8.8454 34.3539 8.30195L29.7909 3.73903C29.2475 3.19558 28.3845 3.14185 27.7778 3.61368ZM25.747 12.626C25.6506 12.5259 25.5521 12.4275 25.4518 12.3308L23.738 10.617L28.5872 6.84544L31.2475 9.50585L27.4759 14.355L25.747 12.626Z" fill="#4A0260"/>
</svg>
