<svg width="18" height="15" viewBox="0 0 18 15" fill="none" xmlns="http://www.w3.org/2000/svg">
<path d="M14.2822 0.292879C14.6727 -0.0976265 15.3058 -0.0976264 15.6963 0.292879C16.0868 0.683399 16.0868 1.31642 15.6963 1.70694L2.98047 14.4228C2.58992 14.813 1.95682 14.8132 1.56641 14.4228C1.176 14.0323 1.17621 13.3992 1.56641 13.0087L14.2822 0.292879Z" fill="white"/>
<path d="M15.1074 2.9921C16.2194 4.19089 17.0019 5.69979 17.3096 7.37491C16.557 11.4708 12.9687 14.5749 8.65527 14.5751C7.1699 14.5751 5.77023 14.2064 4.54297 13.5566L7.05762 11.0419C7.54697 11.2553 8.08729 11.3749 8.65527 11.3749C10.8641 11.3747 12.6551 9.58375 12.6553 7.37491C12.6553 6.80693 12.5357 6.26661 12.3223 5.77725L15.1074 2.9921Z" fill="white"/>
<path d="M8.65527 0.174715C10.1131 0.174771 11.4875 0.530562 12.6982 1.15811L10.1797 3.67667C9.70978 3.4827 9.1952 3.37496 8.65527 3.37491C6.44611 3.37491 4.65527 5.16578 4.65527 7.37491C4.65532 7.915 4.76198 8.43028 4.95605 8.9003L2.15234 11.704C1.06669 10.5141 0.303157 9.02495 0 7.37491C0.752408 3.27872 4.34153 0.174715 8.65527 0.174715Z" fill="white"/>
<path d="M11.0332 7.06632C11.0462 7.16732 11.0547 7.27038 11.0547 7.37491C11.0545 8.70015 9.98044 9.77414 8.65527 9.77432C8.55074 9.77432 8.44769 9.7658 8.34668 9.75284L11.0332 7.06632Z" fill="white"/>
<path d="M8.87109 4.98526L6.26562 7.59073C6.25928 7.51966 6.2549 7.44763 6.25488 7.37491C6.25488 6.04939 7.32975 4.97452 8.65527 4.97452C8.72804 4.97453 8.79997 4.97891 8.87109 4.98526Z" fill="white"/>
</svg>
