<svg width="25" height="32" viewBox="0 0 25 32" fill="none" xmlns="http://www.w3.org/2000/svg">
<mask id="mask0_15_291" style="mask-type:luminance" maskUnits="userSpaceOnUse" x="-1" y="-1" width="26" height="33">
<path d="M19.6821 15.9995H24.7292L24.4134 15.7592C19.1644 11.7658 14.5129 6.27844 12.3646 -0.000484467C10.2165 6.27844 5.56494 11.7658 0.315749 15.7592L-0.00012207 15.9995L0.315749 16.2398C5.56494 20.2332 10.2165 25.7206 12.3646 31.9995C14.5129 25.7206 19.1644 20.2332 24.4134 16.2398L24.7292 15.9995" fill="white"/>
</mask>
<g mask="url(#mask0_15_291)">
<path d="M24.7289 15.9995L24.413 15.7593C19.1641 11.7658 14.5125 6.27846 12.3642 -0.000461578C10.2161 6.27846 5.56458 11.7658 0.315383 15.7593L-0.000488281 15.9995L0.315383 16.2398C5.56458 20.2332 10.2161 25.7206 12.3642 31.9995C14.5125 25.7206 19.1641 20.2332 24.413 16.2398L24.7289 15.9995Z" fill="#3C053F"/>
<path d="M13.5584 10.5278H5.72332C5.69356 10.5278 5.66943 10.5519 5.66943 10.5816C5.66943 10.6114 5.69356 10.6355 5.72332 10.6355H13.5584C13.5881 10.6355 13.6123 10.6114 13.6123 10.5816C13.6123 10.5519 13.5881 10.5278 13.5584 10.5278Z" fill="#E5BB0C" stroke="#E5BB0C" stroke-width="0.0699861" stroke-miterlimit="10"/>
<path d="M8.76408 15.6259H0.0475417C0.0177794 15.6259 -0.00634766 15.65 -0.00634766 15.6798C-0.00634766 15.7096 0.0177794 15.7337 0.0475417 15.7337H8.76408C8.79385 15.7337 8.81797 15.7096 8.81797 15.6798C8.81797 15.65 8.79385 15.6259 8.76408 15.6259Z" fill="#E5BB0C" stroke="#E5BB0C" stroke-width="0.0737187" stroke-miterlimit="10"/>
<path d="M16.2818 20.1241H8.44671C8.41695 20.1241 8.39282 20.1482 8.39282 20.1779C8.39282 20.2077 8.41695 20.2318 8.44671 20.2318H16.2818C16.3115 20.2318 16.3357 20.2077 16.3357 20.1779C16.3357 20.1482 16.3115 20.1241 16.2818 20.1241Z" fill="#E5BB0C" stroke="#E5BB0C" stroke-width="0.0699861" stroke-miterlimit="10"/>
<path d="M13.016 23.5186H10.3132C10.2834 23.5186 10.2593 23.5427 10.2593 23.5725C10.2593 23.6022 10.2834 23.6264 10.3132 23.6264H13.016C13.0457 23.6264 13.0699 23.6022 13.0699 23.5725C13.0699 23.5427 13.0457 23.5186 13.016 23.5186Z" fill="#E5BB0C" stroke="#E5BB0C" stroke-width="0.0699861" stroke-miterlimit="10"/>
<path d="M-6.88684 19.9231V18.1755H17.1238L16.5154 19.9231H-6.88684Z" fill="white"/>
<path d="M15.2441 8.57633L15.2409 8.5796H0.0772705V10.3271H13.5341C13.0631 11.0081 13.1303 11.9489 13.7366 12.5553L15.2444 11.0475C15.9267 10.3652 15.9267 9.25846 15.2444 8.5761L15.2441 8.57633Z" fill="white"/>
<path d="M19.6367 13.6787H10.7909L9.41477 12.3026L8.03861 13.6787H-4.3739V15.4263H8.03861L9.41477 16.8024L10.7909 15.4263H19.0283L19.6367 13.6787Z" fill="white"/>
<path d="M13.6659 21.8312H9.84964C9.02615 21.8312 8.35873 22.4986 8.35873 23.3221L10.0673 25.1648H7.2616V26.6557H10.5588C11.3823 26.6557 12.0497 25.9883 12.0497 25.1648L10.3412 23.3221H13.1469L13.6659 21.8312Z" fill="white"/>
</g>
</svg>
