<svg width="22" height="20" viewBox="0 0 22 20" fill="none" xmlns="http://www.w3.org/2000/svg">
<path d="M18.7134 7.12811L18.4668 7.69379C18.2864 8.10792 17.7136 8.10792 17.5331 7.69379L17.2866 7.12811C16.8471 6.11947 16.0555 5.31641 15.0677 4.87708L14.308 4.53922C13.8973 4.35653 13.8973 3.75881 14.308 3.57612L15.0252 3.25714C16.0384 2.80651 16.8442 1.97373 17.2761 0.930831L17.5293 0.319531C17.7058 -0.10651 18.2942 -0.10651 18.4706 0.319531L18.7238 0.930831C19.1558 1.97373 19.9616 2.80651 20.9748 3.25714L21.6919 3.57612C22.1027 3.75881 22.1027 4.35653 21.6919 4.53922L20.9323 4.87708C19.9445 5.31641 19.1529 6.11947 18.7134 7.12811ZM17.9999 10C18.7012 10 19.3744 9.8797 20 9.6586V19C20 19.5523 19.5523 20 19 20H0V3C0 2.44772 0.44772 2 1 2H12.3413C12.1202 2.62556 11.9999 3.29873 11.9999 4C11.9999 5.44366 12.5098 6.76824 13.3593 7.80348L9.9999 10.6829L3.6507 5.24074L2.34912 6.75926L9.9999 13.3171L14.8855 9.1294C15.7934 9.6818 16.8595 10 17.9999 10Z" fill="#4A0260"/>
</svg>
