<svg width="21" height="20" viewBox="0 0 21 20" fill="none" xmlns="http://www.w3.org/2000/svg">
<path d="M17.4078 6.6308L17.1784 7.15702C17.0106 7.54225 16.4778 7.54225 16.3099 7.15702L16.0806 6.6308C15.6717 5.69253 14.9353 4.9455 14.0165 4.53682L13.3098 4.22253C12.9277 4.05259 12.9277 3.49657 13.3098 3.32662L13.9769 3.0299C14.9194 2.61071 15.669 1.83603 16.0708 0.865889L16.3063 0.297238C16.4705 -0.0990793 17.0179 -0.0990793 17.182 0.297238L17.4175 0.865889C17.8193 1.83603 18.5689 2.61071 19.5114 3.0299L20.1785 3.32662C20.5607 3.49657 20.5607 4.05259 20.1785 4.22253L19.4719 4.53682C18.553 4.9455 17.8167 5.69253 17.4078 6.6308ZM16.7442 9.30233C17.394 9.30233 18.018 9.19126 18.598 8.98707C18.6024 9.09163 18.6047 9.19675 18.6047 9.30233C18.6047 13.4124 15.2728 16.7442 11.1628 16.7442V20C6.51163 18.1395 0 15.3488 0 9.30233C0 5.1923 3.33183 1.86047 7.44186 1.86047H11.1628C11.2684 1.86047 11.3735 1.86267 11.478 1.86702C11.2739 2.44708 11.1628 3.07103 11.1628 3.72093C11.1628 6.80345 13.6617 9.30233 16.7442 9.30233Z" fill="#4A0260"/>
</svg>
