<svg width="19" height="20" viewBox="0 0 19 20" fill="none" xmlns="http://www.w3.org/2000/svg">
<path d="M16.7589 8.88184L17.9028 9.56821C18.128 9.70343 18.2011 9.99566 18.066 10.221C18.0257 10.288 17.9697 10.344 17.9028 10.3842L9.06688 15.6856L0.231074 10.3842C0.00574878 10.249 -0.0673231 9.95674 0.0678776 9.73141C0.108053 9.66442 0.164102 9.60837 0.231074 9.56821L1.37496 8.88184L9.06688 13.497L16.7589 8.88184ZM16.7589 13.3543L17.9028 14.0406C18.128 14.1759 18.2011 14.4681 18.066 14.6934C18.0257 14.7604 17.9697 14.8165 17.9028 14.8566L9.55647 19.8643C9.25511 20.0452 8.87866 20.0452 8.57729 19.8643L0.231074 14.8566C0.00574878 14.7214 -0.0673231 14.4292 0.0678776 14.2038C0.108053 14.1369 0.164102 14.0808 0.231074 14.0406L1.37496 13.3543L9.06688 17.9694L16.7589 13.3543ZM9.55647 0.1356L17.9028 5.14336C18.128 5.27855 18.2011 5.57081 18.066 5.79613C18.0257 5.86311 17.9697 5.91915 17.9028 5.95933L9.06688 11.2608L0.231074 5.95933C0.00574878 5.82414 -0.0673231 5.53188 0.0678776 5.30655C0.108053 5.23958 0.164102 5.18354 0.231074 5.14336L8.57729 0.1356C8.87866 -0.0452001 9.25511 -0.0452001 9.55647 0.1356Z" fill="#4A0260"/>
</svg>
