<svg width="34" height="32" viewBox="0 0 34 32" fill="none" xmlns="http://www.w3.org/2000/svg">
<path d="M28.1399 11.7239L28.5157 10.8619C29.1854 9.32491 30.3916 8.1012 31.8968 7.43174L33.0543 6.91691C33.6803 6.63852 33.6803 5.72771 33.0543 5.44933L31.9616 4.96326C30.4177 4.27659 29.1898 3.00759 28.5315 1.41841L28.1457 0.486904C27.8769 -0.162301 26.9803 -0.162301 26.7113 0.486904L26.3255 1.41841C25.6674 3.00759 24.4395 4.27659 22.8955 4.96326L21.8027 5.44933C21.1768 5.72771 21.1768 6.63852 21.8027 6.91691L22.9603 7.43174C24.4655 8.1012 25.6718 9.32491 26.3415 10.8619L26.7171 11.7239C26.9922 12.3549 27.865 12.3549 28.1399 11.7239ZM15.2381 1.52381C6.82232 1.52381 0 8.34613 0 16.7619C0 25.1776 6.82232 32 15.2381 32C23.6538 32 30.4762 25.1776 30.4762 16.7619C30.4762 16.1486 30.4399 15.5432 30.3692 14.9477L27.3428 15.307C27.3995 15.7835 27.4286 16.269 27.4286 16.7619C27.4286 18.1352 27.2015 19.4554 26.7828 20.6871L20.8873 14.7916C20.2923 14.1964 19.3274 14.1964 18.7323 14.7916L7.41358 26.1103C4.74472 23.8741 3.04762 20.5161 3.04762 16.7619C3.04762 10.0293 8.50548 4.57143 15.2381 4.57143C16.2924 4.57143 17.3132 4.70492 18.2857 4.95511L19.045 2.00361C17.8266 1.69012 16.5507 1.52381 15.2381 1.52381ZM10.6667 16.7619C12.3499 16.7619 13.7143 15.3975 13.7143 13.7143C13.7143 12.0311 12.3499 10.6667 10.6667 10.6667C8.98351 10.6667 7.61905 12.0311 7.61905 13.7143C7.61905 15.3975 8.98351 16.7619 10.6667 16.7619Z" fill="#4A0260"/>
</svg>
