<svg width="16" height="16" viewBox="0 0 16 16" fill="none" xmlns="http://www.w3.org/2000/svg">
<path d="M6.75623 0.75084C6.95434 0.75084 7.15034 0.76123 7.34417 0.777962C6.97048 1.43431 6.7563 2.19363 6.75623 3.00292C6.75623 5.49049 8.77281 7.50705 11.2604 7.50705C12.0697 7.50705 12.8282 7.29205 13.4846 6.91835C13.5013 7.11241 13.5125 7.30879 13.5125 7.50705C13.5125 9.10144 12.9593 10.5679 12.0345 11.7238L15.2492 14.9384L14.1876 16L10.973 12.7854C9.81703 13.7102 8.3507 14.2633 6.75623 14.2633C3.02679 14.2633 0 11.2365 0 7.50705C0.000157645 3.77777 3.02689 0.75084 6.75623 0.75084ZM10.907 0.239866C11.0395 -0.0799554 11.4813 -0.0799554 11.6137 0.239866L11.8036 0.698787C12.1279 1.48162 12.7329 2.10673 13.4934 2.44502L14.0322 2.68475C14.3402 2.82206 14.3402 3.27037 14.0322 3.40758L13.4619 3.66124C12.7203 3.99103 12.1262 4.59387 11.7963 5.35103L11.6108 5.77549C11.4754 6.08638 11.0455 6.08638 10.91 5.77549L10.7252 5.35103C10.3953 4.59385 9.80043 3.99104 9.0589 3.66124L8.48853 3.40758C8.18059 3.27038 8.18067 2.82204 8.48853 2.68475L9.02737 2.44502C9.7879 2.10673 10.393 1.48164 10.7172 0.698787L10.907 0.239866Z" fill="#9972A6"/>
</svg>
