<svg width="18" height="15" viewBox="0 0 18 15" fill="none" xmlns="http://www.w3.org/2000/svg">
<path d="M0 7.2C0.752408 3.10381 4.34119 0 8.65493 0C12.9686 0 16.5574 3.10381 17.3098 7.2C16.5574 11.2962 12.9686 14.4 8.65493 14.4C4.34119 14.4 0.752408 11.2962 0 7.2ZM8.65493 11.2C10.864 11.2 12.6549 9.40912 12.6549 7.2C12.6549 4.99086 10.864 3.2 8.65493 3.2C6.44576 3.2 4.6549 4.99086 4.6549 7.2C4.6549 9.40912 6.44576 11.2 8.65493 11.2ZM8.65493 9.6C7.32941 9.6 6.2549 8.52552 6.2549 7.2C6.2549 5.87448 7.32941 4.8 8.65493 4.8C9.98037 4.8 11.0549 5.87448 11.0549 7.2C11.0549 8.52552 9.98037 9.6 8.65493 9.6Z" fill="white"/>
</svg>
