<svg width="36" height="32" viewBox="0 0 36 32" fill="none" xmlns="http://www.w3.org/2000/svg">
<path d="M33.7778 3.55556H18.5141L14.9586 0H1.77778C0.795947 0 0 0.795947 0 1.77778V30.2222C0 31.2041 0.795947 32 1.77778 32H33.7778C34.7596 32 35.5556 31.2041 35.5556 30.2222V5.33333C35.5556 4.3515 34.7596 3.55556 33.7778 3.55556ZM23.1125 17.1858C23.4393 17.4036 23.5276 17.8452 23.3097 18.1719C23.2576 18.25 23.1906 18.317 23.1125 18.3691L14.4389 24.1515C14.1122 24.3694 13.6706 24.2811 13.4528 23.9543C13.3749 23.8375 13.3333 23.7003 13.3333 23.5598V11.995C13.3333 11.6022 13.6517 11.2839 14.0444 11.2839C14.1849 11.2839 14.3221 11.3254 14.4389 11.4033L23.1125 17.1858Z" fill="#4A0260"/>
</svg>
